{
  "accessors": [
    {
      "bufferView": 0,
      "componentType": 5126,
      "count": 347716,
      "max": [
        0.008227009326219559,
        0.005149964243173599,
        0.01844608038663864
      ],
      "min": [
        -0.008157786913216114,
        -0.005163558758795261,
        0.0
      ],
      "name": "model/POSITION",
      "type": "VEC3"
    },
    {
      "bufferView": 0,
      "byteOffset": 12,
      "componentType": 5126,
      "count": 347716,
      "name": "model/NORMAL",
      "type": "VEC3"
    },
    {
      "bufferView": 0,
      "byteOffset": 24,
      "componentType": 5126,
      "count": 347716,
      "name": "model/TEXCOORD_0",
      "type": "VEC2"
    },
    {
      "bufferView": 1,
      "componentType": 5125,
      "count": 1499586,
      "name": "model/INDICES",
      "type": "SCALAR"
    }
  ],
  "asset": {
    "copyright": "Copyright (c) 2018-2020 Chukong Technologies Inc.",
    "generator": "FBX-glTF-conv",
    "version": "2.0"
  },
  "bufferViews": [
    {
      "buffer": 0,
      "byteLength": 11126912,
      "byteStride": 32,
      "name": "model",
      "target": 34962
    },
    {
      "buffer": 0,
      "byteLength": 5998344,
      "byteOffset": 11126912,
      "target": 34963
    }
  ],
  "buffers": [
    {
      "byteLength": 17125256,
      "uri": "out.bin"
    }
  ],
  "extras": {
    "FBX-glTF-conv": {
      "animationFrameRate": 24.0,
      "fbxFileHeaderInfo": {
        "creationTimeStamp": {
          "day": 18,
          "hour": 9,
          "millisecond": 40,
          "minute": 1,
          "month": 11,
          "second": 1,
          "year": 2025
        },
        "creator": "Blender (stable FBX IO) - 4.3.2 - 5.12.5",
        "sceneInfo": {
          "author": "",
          "comment": "",
          "keywords": "",
          "original": {
            "applicationName": "Blender (stable FBX IO)",
            "applicationVendor": "Blender Foundation",
            "applicationVersion": "4.3.2",
            "fileName": "/foobar.fbx"
          },
          "revision": "",
          "subject": "",
          "title": "",
          "url": "D:\\tangjianhua\\cocos games\\MyGame\\assets\\Fbx\\player\\base_basic_shaded.fbx"
        }
      }
    }
  },
  "images": [
    {
      "extras": {
        "FBX-glTF-conv": {
          "fileName": "D:\\tangjianhua\\cocos games\\MyGame\\temp\\asset-db\\assets\\fbx.FBX-glTF-conv\\58b69e47-702b-438b-91d6-9c6cc3b4b6e8\\output\\.fbm\\30241D03\\base_basic_shaded.fbm/shaded.png",
          "relativeFileName": "..\\..\\..\\temp\\asset-db\\assets\\fbx.FBX-glTF-conv\\58b69e47-702b-438b-91d6-9c6cc3b4b6e8\\output\\.fbm\\30241D03\\base_basic_shaded.fbm\\shaded.png"
        }
      },
      "name": "emission_color_texture",
      "uri": "shaded.png"
    }
  ],
  "materials": [
    {
      "extras": {
        "FBX-glTF-conv": {
          "raw": {
            "properties": {
              "ambient": {
                "value": [
                  0.05087608844041824,
                  0.05087608844041824,
                  0.05087608844041824
                ]
              },
              "ambientFactor": {
                "value": 1.0
              },
              "bump": {
                "value": [
                  0.0,
                  0.0,
                  0.0
                ]
              },
              "bumpFactor": {
                "value": 0.0
              },
              "diffuse": {
                "value": [
                  0.0,
                  0.0,
                  0.0
                ]
              },
              "diffuseFactor": {
                "value": 1.0
              },
              "displacementColor": {
                "value": [
                  0.0,
                  0.0,
                  0.0
                ]
              },
              "displacementFactor": {
                "value": 1.0
              },
              "emissive": {
                "texture": {
                  "index": 0
                },
                "value": [
                  1.0,
                  1.0,
                  1.0
                ]
              },
              "emissiveFactor": {
                "value": 1.0
              },
              "normalMap": {
                "value": [
                  0.0,
                  0.0,
                  0.0
                ]
              },
              "reflection": {
                "value": [
                  0.0,
                  0.0,
                  0.0
                ]
              },
              "reflectionFactor": {
                "value": 0.0
              },
              "shadingModel": "Phong",
              "shininess": {
                "value": 0.0
              },
              "specular": {
                "value": [
                  0.0,
                  0.0,
                  0.0
                ]
              },
              "specularFactor": {
                "value": 0.25
              },
              "transparencyFactor": {
                "value": 0.0
              },
              "transparentColor": {
                "value": [
                  0.0,
                  0.0,
                  0.0
                ]
              },
              "vectorDisplacementColor": {
                "value": [
                  0.0,
                  0.0,
                  0.0
                ]
              },
              "vectorDisplacementFactor": {
                "value": 1.0
              }
            },
            "type": "phong"
          }
        }
      },
      "name": "model"
    }
  ],
  "meshes": [
    {
      "name": "model",
      "primitives": [
        {
          "attributes": {
            "NORMAL": 1,
            "POSITION": 0,
            "TEXCOORD_0": 2
          },
          "indices": 3,
          "material": 0
        }
      ]
    }
  ],
  "nodes": [
    {
      "mesh": 0,
      "name": "model",
      "rotation": [
        -0.7071067690849304,
        0.0,
        0.0,
        0.7071067690849304
      ],
      "scale": [
        100.0,
        100.0,
        100.0
      ]
    }
  ],
  "samplers": [
    {}
  ],
  "scenes": [
    {
      "name": "Scene",
      "nodes": [
        0
      ]
    }
  ],
  "textures": [
    {
      "name": "emission_color_texture",
      "sampler": 0,
      "source": 0
    }
  ]
}